<?xml version="1.0" encoding="UTF-8" standalone="no"?><svg xmlns="http://www.w3.org/2000/svg" xmlns:xlink="http://www.w3.org/1999/xlink" clip-rule="evenodd" stroke-miterlimit="4.00" viewBox="0 0 1024 768"><desc>SVG generated by Keynote</desc><defs></defs><g transform="matrix(1.00, 0.00, -0.00, -1.00, 0.0, 768.0)"><path d="M 0.0 768.0 L 1024.0 768.0 L 1024.0 0.0 L 0.0 0.0 Z M 0.0 768.0 " fill="#FFFFFF"></path><path d="M 0.0 768.0 L 512.0 768.0 L 512.0 -2.0 L 0.0 -2.0 Z M 0.0 768.0 " fill="#34A4DA"></path><path d="M 512.0 768.0 L 1024.0 768.0 L 1024.0 -2.0 L 512.0 -2.0 Z M 512.0 768.0 " fill="#00D1CA"></path><text xml:space="preserve" font-family="DINCondensed-Bold" font-weight="bold" font-size="60.0" fill="#FEFFFE" transform="matrix(1.00, 0.00, -0.00, -1.00, 44.0, 621.0)">S</text><text xml:space="preserve" font-family="DINCondensed-Bold" font-weight="bold" font-size="60.0" fill="#FEFFFE" transform="matrix(1.00, 0.00, -0.00, -1.00, 68.4, 621.0)">Y</text><text xml:space="preserve" font-family="DINCondensed-Bold" font-weight="bold" font-size="60.0" fill="#FEFFFE" transform="matrix(1.00, 0.00, -0.00, -1.00, 91.6, 621.0)">S</text><text xml:space="preserve" font-family="DINCondensed-Bold" font-weight="bold" font-size="60.0" fill="#FEFFFE" transform="matrix(1.00, 0.00, -0.00, -1.00, 116.0, 621.0)">O</text><text xml:space="preserve" font-family="DINCondensed-Bold" font-weight="bold" font-size="60.0" fill="#FEFFFE" transform="matrix(1.00, 0.00, -0.00, -1.00, 141.6, 621.0)">P</text><text xml:space="preserve" font-family="DINCondensed-Bold" font-weight="bold" font-size="60.0" fill="#FEFFFE" transform="matrix(1.00, 0.00, -0.00, -1.00, 166.0, 621.0)">S</text><text xml:space="preserve" font-family="DINCondensed-Bold" font-weight="bold" font-size="60.0" fill="#FEFFFE" transform="matrix(1.00, 0.00, -0.00, -1.00, 566.0, 621.0)">D</text><text xml:space="preserve" font-family="DINCondensed-Bold" font-weight="bold" font-size="60.0" fill="#FEFFFE" transform="matrix(1.00, 0.00, -0.00, -1.00, 591.6, 621.0)">E</text><text xml:space="preserve" font-family="DINCondensed-Bold" font-weight="bold" font-size="60.0" fill="#FEFFFE" transform="matrix(1.00, 0.00, -0.00, -1.00, 613.8, 621.0)">V</text><text xml:space="preserve" font-family="DINCondensed-Bold" font-weight="bold" font-size="60.0" fill="#FEFFFE" transform="matrix(1.00, 0.00, -0.00, -1.00, 638.2, 621.0)">O</text><text xml:space="preserve" font-family="DINCondensed-Bold" font-weight="bold" font-size="60.0" fill="#FEFFFE" transform="matrix(1.00, 0.00, -0.00, -1.00, 663.7, 621.0)">P</text><text xml:space="preserve" font-family="DINCondensed-Bold" font-weight="bold" font-size="60.0" fill="#FEFFFE" transform="matrix(1.00, 0.00, -0.00, -1.00, 688.2, 621.0)">S</text><g><clipPath id="clip-65"><path d="M 29.0 53.0 L 407.8 53.0 L 407.8 167.0 L 29.0 167.0 Z M 29.0 53.0 "></path></clipPath><g clip-path="url(#clip-65)"><text xml:space="preserve" font-family="DINCondensed-Bold" font-weight="bold" font-size="60.0" fill="#FEFFFE" transform="matrix(1.00, 0.00, -0.00, -1.00, 44.0, 109.0)">$</text><text xml:space="preserve" font-family="DINCondensed-Bold" font-weight="bold" font-size="60.0" fill="#FEFFFE" transform="matrix(1.00, 0.00, -0.00, -1.00, 66.3, 109.0)">5</text><text xml:space="preserve" font-family="DINCondensed-Bold" font-weight="bold" font-size="60.0" fill="#FEFFFE" transform="matrix(1.00, 0.00, -0.00, -1.00, 88.6, 109.0)">0</text><text xml:space="preserve" font-family="DINCondensed-Bold" font-weight="bold" font-size="60.0" fill="#FEFFFE" transform="matrix(1.00, 0.00, -0.00, -1.00, 111.0, 109.0)">.</text><text xml:space="preserve" font-family="DINCondensed-Bold" font-weight="bold" font-size="60.0" fill="#FEFFFE" transform="matrix(1.00, 0.00, -0.00, -1.00, 122.1, 109.0)">0</text><text xml:space="preserve" font-family="DINCondensed-Bold" font-weight="bold" font-size="60.0" fill="#FEFFFE" transform="matrix(1.00, 0.00, -0.00, -1.00, 144.4, 109.0)">0</text><text xml:space="preserve" font-family="DINCondensed-Bold" font-weight="bold" font-size="60.0" fill="#FEFFFE" transform="matrix(1.00, 0.00, -0.00, -1.00, 166.8, 109.0)">0</text><text xml:space="preserve" font-family="DINCondensed-Bold" font-weight="bold" font-size="60.0" fill="#FEFFFE" transform="matrix(1.00, 0.00, -0.00, -1.00, 189.1, 109.0)">+</text><text xml:space="preserve" font-family="DINCondensed-Bold" font-weight="bold" font-size="60.0" fill="#FEFFFE" transform="matrix(1.00, 0.00, -0.00, -1.00, 225.1, 109.0)"> </text><text xml:space="preserve" font-family="DINCondensed-Bold" font-weight="bold" font-size="60.0" fill="#FEFFFE" transform="matrix(1.00, 0.00, -0.00, -1.00, 236.2, 109.0)">/</text><text xml:space="preserve" font-family="DINCondensed-Bold" font-weight="bold" font-size="60.0" fill="#FEFFFE" transform="matrix(1.00, 0.00, -0.00, -1.00, 249.6, 109.0)"> </text><text xml:space="preserve" font-family="DINCondensed-Bold" font-weight="bold" font-size="60.0" fill="#FEFFFE" transform="matrix(1.00, 0.00, -0.00, -1.00, 260.7, 109.0)">M</text><text xml:space="preserve" font-family="DINCondensed-Bold" font-weight="bold" font-size="60.0" fill="#FEFFFE" transform="matrix(1.00, 0.00, -0.00, -1.00, 294.1, 109.0)">O</text><text xml:space="preserve" font-family="DINCondensed-Bold" font-weight="bold" font-size="60.0" fill="#FEFFFE" transform="matrix(1.00, 0.00, -0.00, -1.00, 319.6, 109.0)">N</text><text xml:space="preserve" font-family="DINCondensed-Bold" font-weight="bold" font-size="60.0" fill="#FEFFFE" transform="matrix(1.00, 0.00, -0.00, -1.00, 346.3, 109.0)">T</text><text xml:space="preserve" font-family="DINCondensed-Bold" font-weight="bold" font-size="60.0" fill="#FEFFFE" transform="matrix(1.00, 0.00, -0.00, -1.00, 366.2, 109.0)">H</text></g></g><g><clipPath id="clip-66"><path d="M 551.0 53.0 L 907.4 53.0 L 907.4 167.0 L 551.0 167.0 Z M 551.0 53.0 "></path></clipPath><g clip-path="url(#clip-66)"><text xml:space="preserve" font-family="DINCondensed-Bold" font-weight="bold" font-size="60.0" fill="#FEFFFE" transform="matrix(1.00, 0.00, -0.00, -1.00, 566.0, 109.0)">$</text><text xml:space="preserve" font-family="DINCondensed-Bold" font-weight="bold" font-size="60.0" fill="#FEFFFE" transform="matrix(1.00, 0.00, -0.00, -1.00, 588.3, 109.0)">1</text><text xml:space="preserve" font-family="DINCondensed-Bold" font-weight="bold" font-size="60.0" fill="#FEFFFE" transform="matrix(1.00, 0.00, -0.00, -1.00, 610.6, 109.0)">.</text><text xml:space="preserve" font-family="DINCondensed-Bold" font-weight="bold" font-size="60.0" fill="#FEFFFE" transform="matrix(1.00, 0.00, -0.00, -1.00, 621.8, 109.0)">0</text><text xml:space="preserve" font-family="DINCondensed-Bold" font-weight="bold" font-size="60.0" fill="#FEFFFE" transform="matrix(1.00, 0.00, -0.00, -1.00, 644.1, 109.0)">0</text><text xml:space="preserve" font-family="DINCondensed-Bold" font-weight="bold" font-size="60.0" fill="#FEFFFE" transform="matrix(1.00, 0.00, -0.00, -1.00, 666.4, 109.0)">0</text><text xml:space="preserve" font-family="DINCondensed-Bold" font-weight="bold" font-size="60.0" fill="#FEFFFE" transform="matrix(1.00, 0.00, -0.00, -1.00, 688.8, 109.0)">+</text><text xml:space="preserve" font-family="DINCondensed-Bold" font-weight="bold" font-size="60.0" fill="#FEFFFE" transform="matrix(1.00, 0.00, -0.00, -1.00, 724.8, 109.0)"> </text><text xml:space="preserve" font-family="DINCondensed-Bold" font-weight="bold" font-size="60.0" fill="#FEFFFE" transform="matrix(1.00, 0.00, -0.00, -1.00, 735.9, 109.0)">/</text><text xml:space="preserve" font-family="DINCondensed-Bold" font-weight="bold" font-size="60.0" fill="#FEFFFE" transform="matrix(1.00, 0.00, -0.00, -1.00, 749.2, 109.0)"> </text><text xml:space="preserve" font-family="DINCondensed-Bold" font-weight="bold" font-size="60.0" fill="#FEFFFE" transform="matrix(1.00, 0.00, -0.00, -1.00, 760.4, 109.0)">M</text><text xml:space="preserve" font-family="DINCondensed-Bold" font-weight="bold" font-size="60.0" fill="#FEFFFE" transform="matrix(1.00, 0.00, -0.00, -1.00, 793.8, 109.0)">O</text><text xml:space="preserve" font-family="DINCondensed-Bold" font-weight="bold" font-size="60.0" fill="#FEFFFE" transform="matrix(1.00, 0.00, -0.00, -1.00, 819.3, 109.0)">N</text><text xml:space="preserve" font-family="DINCondensed-Bold" font-weight="bold" font-size="60.0" fill="#FEFFFE" transform="matrix(1.00, 0.00, -0.00, -1.00, 846.0, 109.0)">T</text><text xml:space="preserve" font-family="DINCondensed-Bold" font-weight="bold" font-size="60.0" fill="#FEFFFE" transform="matrix(1.00, 0.00, -0.00, -1.00, 865.9, 109.0)">H</text></g></g><g><clipPath id="clip-67"><path d="M 29.0 394.3 L 345.0 394.3 L 345.0 508.3 L 29.0 508.3 Z M 29.0 394.3 "></path></clipPath><g clip-path="url(#clip-67)"><text xml:space="preserve" font-family="DINCondensed-Bold" font-weight="bold" font-size="60.0" fill="#FEFFFE" transform="matrix(1.00, 0.00, -0.00, -1.00, 44.0, 451.0)">8</text><text xml:space="preserve" font-family="DINCondensed-Bold" font-weight="bold" font-size="60.0" fill="#FEFFFE" transform="matrix(1.00, 0.00, -0.00, -1.00, 66.3, 451.0)">0</text><text xml:space="preserve" font-family="DINCondensed-Bold" font-weight="bold" font-size="60.0" fill="#FEFFFE" transform="matrix(1.00, 0.00, -0.00, -1.00, 88.6, 451.0)">+</text><text xml:space="preserve" font-family="DINCondensed-Bold" font-weight="bold" font-size="60.0" fill="#FEFFFE" transform="matrix(1.00, 0.00, -0.00, -1.00, 124.6, 451.0)"> </text><text xml:space="preserve" font-family="DINCondensed-Bold" font-weight="bold" font-size="60.0" fill="#FEFFFE" transform="matrix(1.00, 0.00, -0.00, -1.00, 135.8, 451.0)">M</text><text xml:space="preserve" font-family="DINCondensed-Bold" font-weight="bold" font-size="60.0" fill="#FEFFFE" transform="matrix(1.00, 0.00, -0.00, -1.00, 169.2, 451.0)">A</text><text xml:space="preserve" font-family="DINCondensed-Bold" font-weight="bold" font-size="60.0" fill="#FEFFFE" transform="matrix(1.00, 0.00, -0.00, -1.00, 193.6, 451.0)">C</text><text xml:space="preserve" font-family="DINCondensed-Bold" font-weight="bold" font-size="60.0" fill="#FEFFFE" transform="matrix(1.00, 0.00, -0.00, -1.00, 218.0, 451.0)">H</text><text xml:space="preserve" font-family="DINCondensed-Bold" font-weight="bold" font-size="60.0" fill="#FEFFFE" transform="matrix(1.00, 0.00, -0.00, -1.00, 243.6, 451.0)">I</text><text xml:space="preserve" font-family="DINCondensed-Bold" font-weight="bold" font-size="60.0" fill="#FEFFFE" transform="matrix(1.00, 0.00, -0.00, -1.00, 255.8, 451.0)">N</text><text xml:space="preserve" font-family="DINCondensed-Bold" font-weight="bold" font-size="60.0" fill="#FEFFFE" transform="matrix(1.00, 0.00, -0.00, -1.00, 282.4, 451.0)">E</text><text xml:space="preserve" font-family="DINCondensed-Bold" font-weight="bold" font-size="60.0" fill="#FEFFFE" transform="matrix(1.00, 0.00, -0.00, -1.00, 304.6, 451.0)">S</text></g></g><g><clipPath id="clip-68"><path d="M 551.0 394.0 L 831.0 394.0 L 831.0 508.0 L 551.0 508.0 Z M 551.0 394.0 "></path></clipPath><g clip-path="url(#clip-68)"><text xml:space="preserve" font-family="DINCondensed-Bold" font-weight="bold" font-size="60.0" fill="#FEFFFE" transform="matrix(1.00, 0.00, -0.00, -1.00, 566.0, 450.0)">1</text><text xml:space="preserve" font-family="DINCondensed-Bold" font-weight="bold" font-size="60.0" fill="#FEFFFE" transform="matrix(1.00, 0.00, -0.00, -1.00, 588.3, 450.0)">3</text><text xml:space="preserve" font-family="DINCondensed-Bold" font-weight="bold" font-size="60.0" fill="#FEFFFE" transform="matrix(1.00, 0.00, -0.00, -1.00, 610.6, 450.0)"> </text><text xml:space="preserve" font-family="DINCondensed-Bold" font-weight="bold" font-size="60.0" fill="#FEFFFE" transform="matrix(1.00, 0.00, -0.00, -1.00, 621.8, 450.0)">M</text><text xml:space="preserve" font-family="DINCondensed-Bold" font-weight="bold" font-size="60.0" fill="#FEFFFE" transform="matrix(1.00, 0.00, -0.00, -1.00, 655.2, 450.0)">A</text><text xml:space="preserve" font-family="DINCondensed-Bold" font-weight="bold" font-size="60.0" fill="#FEFFFE" transform="matrix(1.00, 0.00, -0.00, -1.00, 679.6, 450.0)">C</text><text xml:space="preserve" font-family="DINCondensed-Bold" font-weight="bold" font-size="60.0" fill="#FEFFFE" transform="matrix(1.00, 0.00, -0.00, -1.00, 704.0, 450.0)">H</text><text xml:space="preserve" font-family="DINCondensed-Bold" font-weight="bold" font-size="60.0" fill="#FEFFFE" transform="matrix(1.00, 0.00, -0.00, -1.00, 729.6, 450.0)">I</text><text xml:space="preserve" font-family="DINCondensed-Bold" font-weight="bold" font-size="60.0" fill="#FEFFFE" transform="matrix(1.00, 0.00, -0.00, -1.00, 741.8, 450.0)">N</text><text xml:space="preserve" font-family="DINCondensed-Bold" font-weight="bold" font-size="60.0" fill="#FEFFFE" transform="matrix(1.00, 0.00, -0.00, -1.00, 768.4, 450.0)">E</text><text xml:space="preserve" font-family="DINCondensed-Bold" font-weight="bold" font-size="60.0" fill="#FEFFFE" transform="matrix(1.00, 0.00, -0.00, -1.00, 790.6, 450.0)">S</text></g></g><g><clipPath id="clip-69"><path d="M 29.0 223.7 L 287.0 223.7 L 287.0 337.7 L 29.0 337.7 Z M 29.0 223.7 "></path></clipPath><g clip-path="url(#clip-69)"><text xml:space="preserve" font-family="DINCondensed-Bold" font-weight="bold" font-size="60.0" fill="#FEFFFE" transform="matrix(1.00, 0.00, -0.00, -1.00, 44.0, 280.0)">B</text><text xml:space="preserve" font-family="DINCondensed-Bold" font-weight="bold" font-size="60.0" fill="#FEFFFE" transform="matrix(1.00, 0.00, -0.00, -1.00, 68.8, 280.0)">A</text><text xml:space="preserve" font-family="DINCondensed-Bold" font-weight="bold" font-size="60.0" fill="#FEFFFE" transform="matrix(1.00, 0.00, -0.00, -1.00, 93.3, 280.0)">R</text><text xml:space="preserve" font-family="DINCondensed-Bold" font-weight="bold" font-size="60.0" fill="#FEFFFE" transform="matrix(1.00, 0.00, -0.00, -1.00, 118.8, 280.0)">E</text><text xml:space="preserve" font-family="DINCondensed-Bold" font-weight="bold" font-size="60.0" fill="#FEFFFE" transform="matrix(1.00, 0.00, -0.00, -1.00, 141.0, 280.0)"> </text><text xml:space="preserve" font-family="DINCondensed-Bold" font-weight="bold" font-size="60.0" fill="#FEFFFE" transform="matrix(1.00, 0.00, -0.00, -1.00, 152.2, 280.0)">M</text><text xml:space="preserve" font-family="DINCondensed-Bold" font-weight="bold" font-size="60.0" fill="#FEFFFE" transform="matrix(1.00, 0.00, -0.00, -1.00, 185.5, 280.0)">E</text><text xml:space="preserve" font-family="DINCondensed-Bold" font-weight="bold" font-size="60.0" fill="#FEFFFE" transform="matrix(1.00, 0.00, -0.00, -1.00, 207.7, 280.0)">T</text><text xml:space="preserve" font-family="DINCondensed-Bold" font-weight="bold" font-size="60.0" fill="#FEFFFE" transform="matrix(1.00, 0.00, -0.00, -1.00, 224.4, 280.0)">A</text><text xml:space="preserve" font-family="DINCondensed-Bold" font-weight="bold" font-size="60.0" fill="#FEFFFE" transform="matrix(1.00, 0.00, -0.00, -1.00, 248.8, 280.0)">L</text></g></g><g><clipPath id="clip-70"><path d="M 551.0 224.0 L 705.3 224.0 L 705.3 338.0 L 551.0 338.0 Z M 551.0 224.0 "></path></clipPath><g clip-path="url(#clip-70)"><text xml:space="preserve" font-family="DINCondensed-Bold" font-weight="bold" font-size="60.0" fill="#FEFFFE" transform="matrix(1.00, 0.00, -0.00, -1.00, 566.0, 280.0)">C</text><text xml:space="preserve" font-family="DINCondensed-Bold" font-weight="bold" font-size="60.0" fill="#FEFFFE" transform="matrix(1.00, 0.00, -0.00, -1.00, 590.4, 280.0)">L</text><text xml:space="preserve" font-family="DINCondensed-Bold" font-weight="bold" font-size="60.0" fill="#FEFFFE" transform="matrix(1.00, 0.00, -0.00, -1.00, 612.6, 280.0)">O</text><text xml:space="preserve" font-family="DINCondensed-Bold" font-weight="bold" font-size="60.0" fill="#FEFFFE" transform="matrix(1.00, 0.00, -0.00, -1.00, 638.2, 280.0)">U</text><text xml:space="preserve" font-family="DINCondensed-Bold" font-weight="bold" font-size="60.0" fill="#FEFFFE" transform="matrix(1.00, 0.00, -0.00, -1.00, 663.7, 280.0)">D</text></g></g></g></svg>