<?xml version="1.0" encoding="UTF-8" standalone="no"?><svg xmlns="http://www.w3.org/2000/svg" xmlns:xlink="http://www.w3.org/1999/xlink" clip-rule="evenodd" stroke-miterlimit="4.00" viewBox="0 0 657 72"><desc>SVG generated by Keynote</desc><defs></defs><g transform="matrix(1.00, 0.00, -0.00, -1.00, 0.0, 72.0)"><g><clipPath id="clip-63"><path d="M -10.0 -33.3 L 248.0 -33.3 L 248.0 80.7 L -10.0 80.7 Z M -10.0 -33.3 "></path></clipPath><g clip-path="url(#clip-63)"><text xml:space="preserve" font-family="DINCondensed-Bold" font-weight="bold" font-size="60.0" fill="#FEFFFE" transform="matrix(1.00, 0.00, -0.00, -1.00, 5.0, 23.0)">B</text><text xml:space="preserve" font-family="DINCondensed-Bold" font-weight="bold" font-size="60.0" fill="#FEFFFE" transform="matrix(1.00, 0.00, -0.00, -1.00, 29.8, 23.0)">A</text><text xml:space="preserve" font-family="DINCondensed-Bold" font-weight="bold" font-size="60.0" fill="#FEFFFE" transform="matrix(1.00, 0.00, -0.00, -1.00, 54.3, 23.0)">R</text><text xml:space="preserve" font-family="DINCondensed-Bold" font-weight="bold" font-size="60.0" fill="#FEFFFE" transform="matrix(1.00, 0.00, -0.00, -1.00, 79.8, 23.0)">E</text><text xml:space="preserve" font-family="DINCondensed-Bold" font-weight="bold" font-size="60.0" fill="#FEFFFE" transform="matrix(1.00, 0.00, -0.00, -1.00, 102.0, 23.0)"> </text><text xml:space="preserve" font-family="DINCondensed-Bold" font-weight="bold" font-size="60.0" fill="#FEFFFE" transform="matrix(1.00, 0.00, -0.00, -1.00, 113.2, 23.0)">M</text><text xml:space="preserve" font-family="DINCondensed-Bold" font-weight="bold" font-size="60.0" fill="#FEFFFE" transform="matrix(1.00, 0.00, -0.00, -1.00, 146.5, 23.0)">E</text><text xml:space="preserve" font-family="DINCondensed-Bold" font-weight="bold" font-size="60.0" fill="#FEFFFE" transform="matrix(1.00, 0.00, -0.00, -1.00, 168.7, 23.0)">T</text><text xml:space="preserve" font-family="DINCondensed-Bold" font-weight="bold" font-size="60.0" fill="#FEFFFE" transform="matrix(1.00, 0.00, -0.00, -1.00, 185.4, 23.0)">A</text><text xml:space="preserve" font-family="DINCondensed-Bold" font-weight="bold" font-size="60.0" fill="#FEFFFE" transform="matrix(1.00, 0.00, -0.00, -1.00, 209.8, 23.0)">L</text></g></g><g><clipPath id="clip-64"><path d="M 512.0 -33.0 L 666.3 -33.0 L 666.3 81.0 L 512.0 81.0 Z M 512.0 -33.0 "></path></clipPath><g clip-path="url(#clip-64)"><text xml:space="preserve" font-family="DINCondensed-Bold" font-weight="bold" font-size="60.0" fill="#FEFFFE" transform="matrix(1.00, 0.00, -0.00, -1.00, 527.0, 23.0)">C</text><text xml:space="preserve" font-family="DINCondensed-Bold" font-weight="bold" font-size="60.0" fill="#FEFFFE" transform="matrix(1.00, 0.00, -0.00, -1.00, 551.4, 23.0)">L</text><text xml:space="preserve" font-family="DINCondensed-Bold" font-weight="bold" font-size="60.0" fill="#FEFFFE" transform="matrix(1.00, 0.00, -0.00, -1.00, 573.6, 23.0)">O</text><text xml:space="preserve" font-family="DINCondensed-Bold" font-weight="bold" font-size="60.0" fill="#FEFFFE" transform="matrix(1.00, 0.00, -0.00, -1.00, 599.2, 23.0)">U</text><text xml:space="preserve" font-family="DINCondensed-Bold" font-weight="bold" font-size="60.0" fill="#FEFFFE" transform="matrix(1.00, 0.00, -0.00, -1.00, 624.7, 23.0)">D</text></g></g></g></svg>