<?xml version="1.0" encoding="UTF-8" standalone="no"?><svg xmlns="http://www.w3.org/2000/svg" xmlns:xlink="http://www.w3.org/1999/xlink" clip-rule="evenodd" stroke-miterlimit="4.00" viewBox="0 0 1024 768"><desc>SVG generated by Keynote</desc><defs></defs><g transform="matrix(1.00, 0.00, -0.00, -1.00, 0.0, 768.0)"><path d="M 0.0 768.0 L 1024.0 768.0 L 1024.0 0.0 L 0.0 0.0 Z M 0.0 768.0 " fill="#212121"></path><g><clipPath id="clip-0"><path d="M 160.0 628.0 L 357.0 628.0 L 357.0 430.0 L 160.0 430.0 Z M 159.7 627.6 "></path></clipPath><g clip-path="url(#clip-0)"><image xlink:href="2B2B2A399A28CF52AC3E8F319562E38D.jpeg" width="197.00" height="197.00" transform="matrix(1.00, 0.00, -0.00, -1.00, 160.0, 628.0)"></image></g></g><path d="M 512.0 768.0 L 1024.0 768.0 L 1024.0 -2.0 L 512.0 -2.0 Z M 512.0 768.0 " fill="#303030"></path><text xml:space="preserve" font-family="DINCondensed-Bold" font-weight="bold" font-size="60.0" fill="#FEFFFE" transform="matrix(1.00, 0.00, -0.00, -1.00, 110.0, 247.0)">M</text><text xml:space="preserve" font-family="DINCondensed-Bold" font-weight="bold" font-size="60.0" fill="#FEFFFE" transform="matrix(1.00, 0.00, -0.00, -1.00, 143.4, 247.0)">I</text><text xml:space="preserve" font-family="DINCondensed-Bold" font-weight="bold" font-size="60.0" fill="#FEFFFE" transform="matrix(1.00, 0.00, -0.00, -1.00, 155.6, 247.0)">K</text><text xml:space="preserve" font-family="DINCondensed-Bold" font-weight="bold" font-size="60.0" fill="#FEFFFE" transform="matrix(1.00, 0.00, -0.00, -1.00, 181.2, 247.0)">L</text><text xml:space="preserve" font-family="DINCondensed-Bold" font-weight="bold" font-size="60.0" fill="#FEFFFE" transform="matrix(1.00, 0.00, -0.00, -1.00, 203.4, 247.0)">Ó</text><text xml:space="preserve" font-family="DINCondensed-Bold" font-weight="bold" font-size="60.0" fill="#FEFFFE" transform="matrix(1.00, 0.00, -0.00, -1.00, 228.9, 247.0)">S</text><text xml:space="preserve" font-family="DINCondensed-Bold" font-weight="bold" font-size="60.0" fill="#FEFFFE" transform="matrix(1.00, 0.00, -0.00, -1.00, 253.3, 247.0)"> </text><text xml:space="preserve" font-family="DINCondensed-Bold" font-weight="bold" font-size="60.0" fill="#FEFFFE" transform="matrix(1.00, 0.00, -0.00, -1.00, 264.4, 247.0)">M</text><text xml:space="preserve" font-family="DINCondensed-Bold" font-weight="bold" font-size="60.0" fill="#FEFFFE" transform="matrix(1.00, 0.00, -0.00, -1.00, 297.8, 247.0)">A</text><text xml:space="preserve" font-family="DINCondensed-Bold" font-weight="bold" font-size="60.0" fill="#FEFFFE" transform="matrix(1.00, 0.00, -0.00, -1.00, 322.2, 247.0)">R</text><text xml:space="preserve" font-family="DINCondensed-Bold" font-weight="bold" font-size="60.0" fill="#FEFFFE" transform="matrix(1.00, 0.00, -0.00, -1.00, 346.7, 247.0)">T</text><text xml:space="preserve" font-family="DINCondensed-Bold" font-weight="bold" font-size="60.0" fill="#FEFFFE" transform="matrix(1.00, 0.00, -0.00, -1.00, 366.6, 247.0)">I</text><text xml:space="preserve" font-family="DINCondensed-Bold" font-weight="bold" font-size="60.0" fill="#FEFFFE" transform="matrix(1.00, 0.00, -0.00, -1.00, 378.9, 247.0)">N</text><image xlink:href="0F7F73D5249ACF7FC73AB9B3D7F8EA10.png" width="209.00" height="71.00" transform="matrix(1.00, 0.00, -0.00, -1.00, 155.0, 203.0)"></image><text xml:space="preserve" font-family="AvenirNext-Medium" font-size="28.0" fill="#FEFFFE" transform="matrix(1.00, 0.00, -0.00, -1.00, 624.0, 505.0)">@</text><text xml:space="preserve" font-family="AvenirNext-Medium" font-size="28.0" fill="#FEFFFE" transform="matrix(1.00, 0.00, -0.00, -1.00, 646.4, 505.0)">m</text><text xml:space="preserve" font-family="AvenirNext-Medium" font-size="28.0" fill="#FEFFFE" transform="matrix(1.00, 0.00, -0.00, -1.00, 671.2, 505.0)">i</text><text xml:space="preserve" font-family="AvenirNext-Medium" font-size="28.0" fill="#FEFFFE" transform="matrix(1.00, 0.00, -0.00, -1.00, 678.5, 505.0)">k</text><text xml:space="preserve" font-family="AvenirNext-Medium" font-size="28.0" fill="#FEFFFE" transform="matrix(1.00, 0.00, -0.00, -1.00, 693.2, 505.0)">l</text><text xml:space="preserve" font-family="AvenirNext-Medium" font-size="28.0" fill="#FEFFFE" transform="matrix(1.00, 0.00, -0.00, -1.00, 700.5, 505.0)">o</text><text xml:space="preserve" font-family="AvenirNext-Medium" font-size="28.0" fill="#FEFFFE" transform="matrix(1.00, 0.00, -0.00, -1.00, 717.6, 505.0)">s</text><text xml:space="preserve" font-family="AvenirNext-Medium" font-size="28.0" fill="#FEFFFE" transform="matrix(1.00, 0.00, -0.00, -1.00, 730.0, 505.0)">-</text><text xml:space="preserve" font-family="AvenirNext-Medium" font-size="28.0" fill="#FEFFFE" transform="matrix(1.00, 0.00, -0.00, -1.00, 739.0, 505.0)">m</text><text xml:space="preserve" font-family="AvenirNext-Medium" font-size="28.0" fill="#FEFFFE" transform="matrix(1.00, 0.00, -0.00, -1.00, 763.8, 505.0)">a</text><text xml:space="preserve" font-family="AvenirNext-Medium" font-size="28.0" fill="#FEFFFE" transform="matrix(1.00, 0.00, -0.00, -1.00, 779.0, 505.0)">r</text><text xml:space="preserve" font-family="AvenirNext-Medium" font-size="28.0" fill="#FEFFFE" transform="matrix(1.00, 0.00, -0.00, -1.00, 788.8, 505.0)">t</text><text xml:space="preserve" font-family="AvenirNext-Medium" font-size="28.0" fill="#FEFFFE" transform="matrix(1.00, 0.00, -0.00, -1.00, 798.0, 505.0)">i</text><text xml:space="preserve" font-family="AvenirNext-Medium" font-size="28.0" fill="#FEFFFE" transform="matrix(1.00, 0.00, -0.00, -1.00, 805.3, 505.0)">n</text><text xml:space="preserve" font-family="AvenirNext-Medium" font-size="28.0" fill="#FEFFFE" transform="matrix(1.00, 0.00, -0.00, -1.00, 624.0, 431.0)">@</text><text xml:space="preserve" font-family="AvenirNext-Medium" font-size="28.0" fill="#FEFFFE" transform="matrix(1.00, 0.00, -0.00, -1.00, 646.4, 431.0)">m</text><text xml:space="preserve" font-family="AvenirNext-Medium" font-size="28.0" fill="#FEFFFE" transform="matrix(1.00, 0.00, -0.00, -1.00, 671.2, 431.0)">i</text><text xml:space="preserve" font-family="AvenirNext-Medium" font-size="28.0" fill="#FEFFFE" transform="matrix(1.00, 0.00, -0.00, -1.00, 678.5, 431.0)">k</text><text xml:space="preserve" font-family="AvenirNext-Medium" font-size="28.0" fill="#FEFFFE" transform="matrix(1.00, 0.00, -0.00, -1.00, 693.2, 431.0)">l</text><text xml:space="preserve" font-family="AvenirNext-Medium" font-size="28.0" fill="#FEFFFE" transform="matrix(1.00, 0.00, -0.00, -1.00, 700.5, 431.0)">o</text><text xml:space="preserve" font-family="AvenirNext-Medium" font-size="28.0" fill="#FEFFFE" transform="matrix(1.00, 0.00, -0.00, -1.00, 717.6, 431.0)">s</text><text xml:space="preserve" font-family="AvenirNext-Medium" font-size="28.0" fill="#FEFFFE" transform="matrix(1.00, 0.00, -0.00, -1.00, 730.0, 431.0)">m</text><text xml:space="preserve" font-family="AvenirNext-Medium" font-size="28.0" fill="#FEFFFE" transform="matrix(1.00, 0.00, -0.00, -1.00, 754.9, 431.0)">a</text><text xml:space="preserve" font-family="AvenirNext-Medium" font-size="28.0" fill="#FEFFFE" transform="matrix(1.00, 0.00, -0.00, -1.00, 770.0, 431.0)">r</text><text xml:space="preserve" font-family="AvenirNext-Medium" font-size="28.0" fill="#FEFFFE" transform="matrix(1.00, 0.00, -0.00, -1.00, 779.8, 431.0)">t</text><text xml:space="preserve" font-family="AvenirNext-Medium" font-size="28.0" fill="#FEFFFE" transform="matrix(1.00, 0.00, -0.00, -1.00, 789.1, 431.0)">i</text><text xml:space="preserve" font-family="AvenirNext-Medium" font-size="28.0" fill="#FEFFFE" transform="matrix(1.00, 0.00, -0.00, -1.00, 796.3, 431.0)">n</text><text xml:space="preserve" font-family="AvenirNext-Medium" font-size="28.0" fill="#34A4DA" transform="matrix(1.00, 0.00, -0.00, -1.00, 624.0, 357.0)">m</text><text xml:space="preserve" font-family="AvenirNext-Medium" font-size="28.0" fill="#34A4DA" transform="matrix(1.00, 0.00, -0.00, -1.00, 648.8, 357.0)">i</text><text xml:space="preserve" font-family="AvenirNext-Medium" font-size="28.0" fill="#34A4DA" transform="matrix(1.00, 0.00, -0.00, -1.00, 656.1, 357.0)">k</text><text xml:space="preserve" font-family="AvenirNext-Medium" font-size="28.0" fill="#34A4DA" transform="matrix(1.00, 0.00, -0.00, -1.00, 670.8, 357.0)">l</text><text xml:space="preserve" font-family="AvenirNext-Medium" font-size="28.0" fill="#34A4DA" transform="matrix(1.00, 0.00, -0.00, -1.00, 678.1, 357.0)">o</text><text xml:space="preserve" font-family="AvenirNext-Medium" font-size="28.0" fill="#34A4DA" transform="matrix(1.00, 0.00, -0.00, -1.00, 695.2, 357.0)">s</text><text xml:space="preserve" font-family="AvenirNext-Medium" font-size="28.0" fill="#34A4DA" transform="matrix(1.00, 0.00, -0.00, -1.00, 707.6, 357.0)">-</text><text xml:space="preserve" font-family="AvenirNext-Medium" font-size="28.0" fill="#34A4DA" transform="matrix(1.00, 0.00, -0.00, -1.00, 716.6, 357.0)">m</text><text xml:space="preserve" font-family="AvenirNext-Medium" font-size="28.0" fill="#34A4DA" transform="matrix(1.00, 0.00, -0.00, -1.00, 741.4, 357.0)">a</text><text xml:space="preserve" font-family="AvenirNext-Medium" font-size="28.0" fill="#34A4DA" transform="matrix(1.00, 0.00, -0.00, -1.00, 756.6, 357.0)">r</text><text xml:space="preserve" font-family="AvenirNext-Medium" font-size="28.0" fill="#34A4DA" transform="matrix(1.00, 0.00, -0.00, -1.00, 766.4, 357.0)">t</text><text xml:space="preserve" font-family="AvenirNext-Medium" font-size="28.0" fill="#34A4DA" transform="matrix(1.00, 0.00, -0.00, -1.00, 775.6, 357.0)">i</text><text xml:space="preserve" font-family="AvenirNext-Medium" font-size="28.0" fill="#34A4DA" transform="matrix(1.00, 0.00, -0.00, -1.00, 782.9, 357.0)">n</text><text xml:space="preserve" font-family="AvenirNext-Medium" font-size="28.0" fill="#34A4DA" transform="matrix(1.00, 0.00, -0.00, -1.00, 799.2, 357.0)">.</text><text xml:space="preserve" font-family="AvenirNext-Medium" font-size="28.0" fill="#34A4DA" transform="matrix(1.00, 0.00, -0.00, -1.00, 806.4, 357.0)">g</text><text xml:space="preserve" font-family="AvenirNext-Medium" font-size="28.0" fill="#34A4DA" transform="matrix(1.00, 0.00, -0.00, -1.00, 824.1, 357.0)">i</text><text xml:space="preserve" font-family="AvenirNext-Medium" font-size="28.0" fill="#34A4DA" transform="matrix(1.00, 0.00, -0.00, -1.00, 831.4, 357.0)">t</text><text xml:space="preserve" font-family="AvenirNext-Medium" font-size="28.0" fill="#34A4DA" transform="matrix(1.00, 0.00, -0.00, -1.00, 840.6, 357.0)">h</text><text xml:space="preserve" font-family="AvenirNext-Medium" font-size="28.0" fill="#34A4DA" transform="matrix(1.00, 0.00, -0.00, -1.00, 857.0, 357.0)">u</text><text xml:space="preserve" font-family="AvenirNext-Medium" font-size="28.0" fill="#34A4DA" transform="matrix(1.00, 0.00, -0.00, -1.00, 873.3, 357.0)">b</text><text xml:space="preserve" font-family="AvenirNext-Medium" font-size="28.0" fill="#34A4DA" transform="matrix(1.00, 0.00, -0.00, -1.00, 890.7, 357.0)">.</text><text xml:space="preserve" font-family="AvenirNext-Medium" font-size="28.0" fill="#34A4DA" transform="matrix(1.00, 0.00, -0.00, -1.00, 898.0, 357.0)">i</text><text xml:space="preserve" font-family="AvenirNext-Medium" font-size="28.0" fill="#34A4DA" transform="matrix(1.00, 0.00, -0.00, -1.00, 905.3, 357.0)">o</text><g><clipPath id="clip-1"><path d="M 623.0 353.6 L 922.3 353.6 L 922.3 357.0 L 623.0 357.0 Z M 623.0 353.6 "></path></clipPath><g clip-path="url(#clip-1)"><path d="M 4.0 33.9 L 302.3 33.9 " fill="none" stroke="#34A4DA" stroke-width="1.40" stroke-miterlimit="0.00" transform="matrix(1.00, 0.00, 0.00, -1.00, 620.0, 389.2)"></path></g></g><text xml:space="preserve" font-family="AvenirNext-Medium" font-size="28.0" fill="#34A4DA" transform="matrix(1.00, 0.00, -0.00, -1.00, 624.0, 284.0)">v</text><text xml:space="preserve" font-family="AvenirNext-Medium" font-size="28.0" fill="#34A4DA" transform="matrix(1.00, 0.00, -0.00, -1.00, 638.1, 284.0)">i</text><text xml:space="preserve" font-family="AvenirNext-Medium" font-size="28.0" fill="#34A4DA" transform="matrix(1.00, 0.00, -0.00, -1.00, 645.4, 284.0)">r</text><text xml:space="preserve" font-family="AvenirNext-Medium" font-size="28.0" fill="#34A4DA" transform="matrix(1.00, 0.00, -0.00, -1.00, 655.0, 284.0)">g</text><text xml:space="preserve" font-family="AvenirNext-Medium" font-size="28.0" fill="#34A4DA" transform="matrix(1.00, 0.00, -0.00, -1.00, 672.7, 284.0)">o</text><text xml:space="preserve" font-family="AvenirNext-Medium" font-size="28.0" fill="#34A4DA" transform="matrix(1.00, 0.00, -0.00, -1.00, 689.4, 284.0)">.</text><text xml:space="preserve" font-family="AvenirNext-Medium" font-size="28.0" fill="#34A4DA" transform="matrix(1.00, 0.00, -0.00, -1.00, 696.7, 284.0)">s</text><text xml:space="preserve" font-family="AvenirNext-Medium" font-size="28.0" fill="#34A4DA" transform="matrix(1.00, 0.00, -0.00, -1.00, 709.1, 284.0)">y</text><text xml:space="preserve" font-family="AvenirNext-Medium" font-size="28.0" fill="#34A4DA" transform="matrix(1.00, 0.00, -0.00, -1.00, 723.3, 284.0)">s</text><text xml:space="preserve" font-family="AvenirNext-Medium" font-size="28.0" fill="#34A4DA" transform="matrix(1.00, 0.00, -0.00, -1.00, 735.7, 284.0)">t</text><text xml:space="preserve" font-family="AvenirNext-Medium" font-size="28.0" fill="#34A4DA" transform="matrix(1.00, 0.00, -0.00, -1.00, 744.9, 284.0)">e</text><text xml:space="preserve" font-family="AvenirNext-Medium" font-size="28.0" fill="#34A4DA" transform="matrix(1.00, 0.00, -0.00, -1.00, 760.9, 284.0)">m</text><text xml:space="preserve" font-family="AvenirNext-Medium" font-size="28.0" fill="#34A4DA" transform="matrix(1.00, 0.00, -0.00, -1.00, 785.8, 284.0)">s</text><g><clipPath id="clip-2"><path d="M 623.0 279.8 L 798.2 279.8 L 798.2 283.2 L 623.0 283.2 Z M 623.0 279.8 "></path></clipPath><g clip-path="url(#clip-2)"><path d="M 4.0 33.9 L 178.2 33.9 " fill="none" stroke="#34A4DA" stroke-width="1.40" stroke-miterlimit="0.00" transform="matrix(1.00, 0.00, 0.00, -1.00, 620.0, 315.3)"></path></g></g><image xlink:href="8BB28134611089CE01DDFBBEDDDCE066.png" width="46.00" height="46.00" transform="matrix(1.00, 0.00, -0.00, -1.00, 550.0, 463.0)"></image><image xlink:href="F0CA76D8344806B71EFE43DBF69300AC.png" width="46.00" height="46.00" transform="matrix(1.00, 0.00, -0.00, -1.00, 550.0, 537.0)"></image></g></svg>