<?xml version="1.0" encoding="UTF-8" standalone="no"?><svg xmlns="http://www.w3.org/2000/svg" xmlns:xlink="http://www.w3.org/1999/xlink" clip-rule="evenodd" stroke-miterlimit="4.00" viewBox="0 0 1024 768"><desc>SVG generated by Keynote</desc><defs></defs><g transform="matrix(1.00, 0.00, -0.00, -1.00, 0.0, 768.0)"><path d="M 0.0 768.0 L 1024.0 768.0 L 1024.0 0.0 L 0.0 0.0 Z M 0.0 768.0 " fill="#FFFFFF"></path><path d="M 0.0 768.0 L 512.0 768.0 L 512.0 -2.0 L 0.0 -2.0 Z M 0.0 768.0 " fill="#34A4DA"></path><path d="M 512.0 768.0 L 1024.0 768.0 L 1024.0 -2.0 L 512.0 -2.0 Z M 512.0 768.0 " fill="#00D1CA"></path><text xml:space="preserve" font-family="DINCondensed-Bold" font-weight="bold" font-size="60.0" fill="#FEFFFE" transform="matrix(1.00, 0.00, -0.00, -1.00, 44.0, 621.0)">1</text><text xml:space="preserve" font-family="DINCondensed-Bold" font-weight="bold" font-size="60.0" fill="#FEFFFE" transform="matrix(1.00, 0.00, -0.00, -1.00, 66.3, 621.0)">.</text><text xml:space="preserve" font-family="DINCondensed-Bold" font-weight="bold" font-size="60.0" fill="#FEFFFE" transform="matrix(1.00, 0.00, -0.00, -1.00, 77.5, 621.0)">6</text><text xml:space="preserve" font-family="DINCondensed-Bold" font-weight="bold" font-size="60.0" fill="#FEFFFE" transform="matrix(1.00, 0.00, -0.00, -1.00, 99.8, 621.0)">M</text><text xml:space="preserve" font-family="DINCondensed-Bold" font-weight="bold" font-size="60.0" fill="#FEFFFE" transform="matrix(1.00, 0.00, -0.00, -1.00, 133.2, 621.0)"> </text><text xml:space="preserve" font-family="DINCondensed-Bold" font-weight="bold" font-size="60.0" fill="#FEFFFE" transform="matrix(1.00, 0.00, -0.00, -1.00, 144.3, 621.0)">/</text><text xml:space="preserve" font-family="DINCondensed-Bold" font-weight="bold" font-size="60.0" fill="#FEFFFE" transform="matrix(1.00, 0.00, -0.00, -1.00, 157.6, 621.0)"> </text><text xml:space="preserve" font-family="DINCondensed-Bold" font-weight="bold" font-size="60.0" fill="#FEFFFE" transform="matrix(1.00, 0.00, -0.00, -1.00, 168.8, 621.0)">4</text><text xml:space="preserve" font-family="DINCondensed-Bold" font-weight="bold" font-size="60.0" fill="#FEFFFE" transform="matrix(1.00, 0.00, -0.00, -1.00, 191.1, 621.0)">M</text><text xml:space="preserve" font-family="DINCondensed-Bold" font-weight="bold" font-size="60.0" fill="#FEFFFE" transform="matrix(1.00, 0.00, -0.00, -1.00, 224.5, 621.0)"> </text><text xml:space="preserve" font-family="DINCondensed-Bold" font-weight="bold" font-size="60.0" fill="#FEFFFE" transform="matrix(1.00, 0.00, -0.00, -1.00, 235.6, 621.0)">U</text><text xml:space="preserve" font-family="DINCondensed-Bold" font-weight="bold" font-size="60.0" fill="#FEFFFE" transform="matrix(1.00, 0.00, -0.00, -1.00, 261.2, 621.0)">S</text><text xml:space="preserve" font-family="DINCondensed-Bold" font-weight="bold" font-size="60.0" fill="#FEFFFE" transform="matrix(1.00, 0.00, -0.00, -1.00, 285.6, 621.0)">E</text><text xml:space="preserve" font-family="DINCondensed-Bold" font-weight="bold" font-size="60.0" fill="#FEFFFE" transform="matrix(1.00, 0.00, -0.00, -1.00, 307.8, 621.0)">R</text><text xml:space="preserve" font-family="DINCondensed-Bold" font-weight="bold" font-size="60.0" fill="#FEFFFE" transform="matrix(1.00, 0.00, -0.00, -1.00, 333.3, 621.0)">S</text><text xml:space="preserve" font-family="DINCondensed-Bold" font-weight="bold" font-size="60.0" fill="#FEFFFE" transform="matrix(1.00, 0.00, -0.00, -1.00, 44.0, 369.0)">1</text><text xml:space="preserve" font-family="DINCondensed-Bold" font-weight="bold" font-size="60.0" fill="#FEFFFE" transform="matrix(1.00, 0.00, -0.00, -1.00, 66.3, 369.0)">4</text><text xml:space="preserve" font-family="DINCondensed-Bold" font-weight="bold" font-size="60.0" fill="#FEFFFE" transform="matrix(1.00, 0.00, -0.00, -1.00, 88.6, 369.0)">0</text><text xml:space="preserve" font-family="DINCondensed-Bold" font-weight="bold" font-size="60.0" fill="#FEFFFE" transform="matrix(1.00, 0.00, -0.00, -1.00, 111.0, 369.0)">M</text><text xml:space="preserve" font-family="DINCondensed-Bold" font-weight="bold" font-size="60.0" fill="#FEFFFE" transform="matrix(1.00, 0.00, -0.00, -1.00, 144.3, 369.0)"> </text><text xml:space="preserve" font-family="DINCondensed-Bold" font-weight="bold" font-size="60.0" fill="#FEFFFE" transform="matrix(1.00, 0.00, -0.00, -1.00, 155.5, 369.0)">P</text><text xml:space="preserve" font-family="DINCondensed-Bold" font-weight="bold" font-size="60.0" fill="#FEFFFE" transform="matrix(1.00, 0.00, -0.00, -1.00, 177.7, 369.0)">A</text><text xml:space="preserve" font-family="DINCondensed-Bold" font-weight="bold" font-size="60.0" fill="#FEFFFE" transform="matrix(1.00, 0.00, -0.00, -1.00, 202.1, 369.0)">G</text><text xml:space="preserve" font-family="DINCondensed-Bold" font-weight="bold" font-size="60.0" fill="#FEFFFE" transform="matrix(1.00, 0.00, -0.00, -1.00, 227.7, 369.0)">E</text><text xml:space="preserve" font-family="DINCondensed-Bold" font-weight="bold" font-size="60.0" fill="#FEFFFE" transform="matrix(1.00, 0.00, -0.00, -1.00, 249.9, 369.0)"> </text><text xml:space="preserve" font-family="DINCondensed-Bold" font-weight="bold" font-size="60.0" fill="#FEFFFE" transform="matrix(1.00, 0.00, -0.00, -1.00, 261.0, 369.0)">L</text><text xml:space="preserve" font-family="DINCondensed-Bold" font-weight="bold" font-size="60.0" fill="#FEFFFE" transform="matrix(1.00, 0.00, -0.00, -1.00, 283.2, 369.0)">O</text><text xml:space="preserve" font-family="DINCondensed-Bold" font-weight="bold" font-size="60.0" fill="#FEFFFE" transform="matrix(1.00, 0.00, -0.00, -1.00, 308.1, 369.0)">A</text><text xml:space="preserve" font-family="DINCondensed-Bold" font-weight="bold" font-size="60.0" fill="#FEFFFE" transform="matrix(1.00, 0.00, -0.00, -1.00, 332.5, 369.0)">D</text><text xml:space="preserve" font-family="DINCondensed-Bold" font-weight="bold" font-size="60.0" fill="#FEFFFE" transform="matrix(1.00, 0.00, -0.00, -1.00, 358.0, 369.0)">S</text><text xml:space="preserve" font-family="DINCondensed-Bold" font-weight="bold" font-size="60.0" fill="#FEFFFE" transform="matrix(1.00, 0.00, -0.00, -1.00, 44.0, 116.0)">5</text><text xml:space="preserve" font-family="DINCondensed-Bold" font-weight="bold" font-size="60.0" fill="#FEFFFE" transform="matrix(1.00, 0.00, -0.00, -1.00, 66.3, 116.0)">0</text><text xml:space="preserve" font-family="DINCondensed-Bold" font-weight="bold" font-size="60.0" fill="#FEFFFE" transform="matrix(1.00, 0.00, -0.00, -1.00, 88.6, 116.0)">M</text><text xml:space="preserve" font-family="DINCondensed-Bold" font-weight="bold" font-size="60.0" fill="#FEFFFE" transform="matrix(1.00, 0.00, -0.00, -1.00, 122.0, 116.0)">+</text><text xml:space="preserve" font-family="DINCondensed-Bold" font-weight="bold" font-size="60.0" fill="#FEFFFE" transform="matrix(1.00, 0.00, -0.00, -1.00, 158.0, 116.0)"> </text><text xml:space="preserve" font-family="DINCondensed-Bold" font-weight="bold" font-size="60.0" fill="#FEFFFE" transform="matrix(1.00, 0.00, -0.00, -1.00, 169.2, 116.0)">E</text><text xml:space="preserve" font-family="DINCondensed-Bold" font-weight="bold" font-size="60.0" fill="#FEFFFE" transform="matrix(1.00, 0.00, -0.00, -1.00, 191.4, 116.0)">M</text><text xml:space="preserve" font-family="DINCondensed-Bold" font-weight="bold" font-size="60.0" fill="#FEFFFE" transform="matrix(1.00, 0.00, -0.00, -1.00, 224.7, 116.0)">A</text><text xml:space="preserve" font-family="DINCondensed-Bold" font-weight="bold" font-size="60.0" fill="#FEFFFE" transform="matrix(1.00, 0.00, -0.00, -1.00, 249.1, 116.0)">I</text><text xml:space="preserve" font-family="DINCondensed-Bold" font-weight="bold" font-size="60.0" fill="#FEFFFE" transform="matrix(1.00, 0.00, -0.00, -1.00, 261.4, 116.0)">L</text><text xml:space="preserve" font-family="DINCondensed-Bold" font-weight="bold" font-size="60.0" fill="#FEFFFE" transform="matrix(1.00, 0.00, -0.00, -1.00, 283.6, 116.0)">S</text><g><clipPath id="clip-12"><path d="M 551.0 565.0 L 868.9 565.0 L 868.9 679.0 L 551.0 679.0 Z M 551.0 565.0 "></path></clipPath><g clip-path="url(#clip-12)"><text xml:space="preserve" font-family="DINCondensed-Bold" font-weight="bold" font-size="60.0" fill="#FEFFFE" transform="matrix(1.00, 0.00, -0.00, -1.00, 566.0, 621.0)">1</text><text xml:space="preserve" font-family="DINCondensed-Bold" font-weight="bold" font-size="60.0" fill="#FEFFFE" transform="matrix(1.00, 0.00, -0.00, -1.00, 588.3, 621.0)">K</text><text xml:space="preserve" font-family="DINCondensed-Bold" font-weight="bold" font-size="60.0" fill="#FEFFFE" transform="matrix(1.00, 0.00, -0.00, -1.00, 613.9, 621.0)"> </text><text xml:space="preserve" font-family="DINCondensed-Bold" font-weight="bold" font-size="60.0" fill="#FEFFFE" transform="matrix(1.00, 0.00, -0.00, -1.00, 625.0, 621.0)">/</text><text xml:space="preserve" font-family="DINCondensed-Bold" font-weight="bold" font-size="60.0" fill="#FEFFFE" transform="matrix(1.00, 0.00, -0.00, -1.00, 638.4, 621.0)"> </text><text xml:space="preserve" font-family="DINCondensed-Bold" font-weight="bold" font-size="60.0" fill="#FEFFFE" transform="matrix(1.00, 0.00, -0.00, -1.00, 649.5, 621.0)">1</text><text xml:space="preserve" font-family="DINCondensed-Bold" font-weight="bold" font-size="60.0" fill="#FEFFFE" transform="matrix(1.00, 0.00, -0.00, -1.00, 671.8, 621.0)">9</text><text xml:space="preserve" font-family="DINCondensed-Bold" font-weight="bold" font-size="60.0" fill="#FEFFFE" transform="matrix(1.00, 0.00, -0.00, -1.00, 694.2, 621.0)">K</text><text xml:space="preserve" font-family="DINCondensed-Bold" font-weight="bold" font-size="60.0" fill="#FEFFFE" transform="matrix(1.00, 0.00, -0.00, -1.00, 719.7, 621.0)"> </text><text xml:space="preserve" font-family="DINCondensed-Bold" font-weight="bold" font-size="60.0" fill="#FEFFFE" transform="matrix(1.00, 0.00, -0.00, -1.00, 730.9, 621.0)">U</text><text xml:space="preserve" font-family="DINCondensed-Bold" font-weight="bold" font-size="60.0" fill="#FEFFFE" transform="matrix(1.00, 0.00, -0.00, -1.00, 756.4, 621.0)">S</text><text xml:space="preserve" font-family="DINCondensed-Bold" font-weight="bold" font-size="60.0" fill="#FEFFFE" transform="matrix(1.00, 0.00, -0.00, -1.00, 780.8, 621.0)">E</text><text xml:space="preserve" font-family="DINCondensed-Bold" font-weight="bold" font-size="60.0" fill="#FEFFFE" transform="matrix(1.00, 0.00, -0.00, -1.00, 803.0, 621.0)">R</text><text xml:space="preserve" font-family="DINCondensed-Bold" font-weight="bold" font-size="60.0" fill="#FEFFFE" transform="matrix(1.00, 0.00, -0.00, -1.00, 828.6, 621.0)">S</text></g></g><g><clipPath id="clip-13"><path d="M 551.0 312.0 L 912.6 312.0 L 912.6 426.0 L 551.0 426.0 Z M 551.0 312.0 "></path></clipPath><g clip-path="url(#clip-13)"><text xml:space="preserve" font-family="DINCondensed-Bold" font-weight="bold" font-size="60.0" fill="#FEFFFE" transform="matrix(1.00, 0.00, -0.00, -1.00, 566.0, 368.0)">1</text><text xml:space="preserve" font-family="DINCondensed-Bold" font-weight="bold" font-size="60.0" fill="#FEFFFE" transform="matrix(1.00, 0.00, -0.00, -1.00, 588.3, 368.0)">0</text><text xml:space="preserve" font-family="DINCondensed-Bold" font-weight="bold" font-size="60.0" fill="#FEFFFE" transform="matrix(1.00, 0.00, -0.00, -1.00, 610.6, 368.0)">0</text><text xml:space="preserve" font-family="DINCondensed-Bold" font-weight="bold" font-size="60.0" fill="#FEFFFE" transform="matrix(1.00, 0.00, -0.00, -1.00, 633.0, 368.0)">K</text><text xml:space="preserve" font-family="DINCondensed-Bold" font-weight="bold" font-size="60.0" fill="#FEFFFE" transform="matrix(1.00, 0.00, -0.00, -1.00, 658.5, 368.0)"> </text><text xml:space="preserve" font-family="DINCondensed-Bold" font-weight="bold" font-size="60.0" fill="#FEFFFE" transform="matrix(1.00, 0.00, -0.00, -1.00, 669.7, 368.0)">P</text><text xml:space="preserve" font-family="DINCondensed-Bold" font-weight="bold" font-size="60.0" fill="#FEFFFE" transform="matrix(1.00, 0.00, -0.00, -1.00, 691.9, 368.0)">A</text><text xml:space="preserve" font-family="DINCondensed-Bold" font-weight="bold" font-size="60.0" fill="#FEFFFE" transform="matrix(1.00, 0.00, -0.00, -1.00, 716.3, 368.0)">G</text><text xml:space="preserve" font-family="DINCondensed-Bold" font-weight="bold" font-size="60.0" fill="#FEFFFE" transform="matrix(1.00, 0.00, -0.00, -1.00, 741.9, 368.0)">E</text><text xml:space="preserve" font-family="DINCondensed-Bold" font-weight="bold" font-size="60.0" fill="#FEFFFE" transform="matrix(1.00, 0.00, -0.00, -1.00, 764.1, 368.0)"> </text><text xml:space="preserve" font-family="DINCondensed-Bold" font-weight="bold" font-size="60.0" fill="#FEFFFE" transform="matrix(1.00, 0.00, -0.00, -1.00, 775.2, 368.0)">L</text><text xml:space="preserve" font-family="DINCondensed-Bold" font-weight="bold" font-size="60.0" fill="#FEFFFE" transform="matrix(1.00, 0.00, -0.00, -1.00, 797.4, 368.0)">O</text><text xml:space="preserve" font-family="DINCondensed-Bold" font-weight="bold" font-size="60.0" fill="#FEFFFE" transform="matrix(1.00, 0.00, -0.00, -1.00, 822.3, 368.0)">A</text><text xml:space="preserve" font-family="DINCondensed-Bold" font-weight="bold" font-size="60.0" fill="#FEFFFE" transform="matrix(1.00, 0.00, -0.00, -1.00, 846.7, 368.0)">D</text><text xml:space="preserve" font-family="DINCondensed-Bold" font-weight="bold" font-size="60.0" fill="#FEFFFE" transform="matrix(1.00, 0.00, -0.00, -1.00, 872.2, 368.0)">S</text></g></g><g><clipPath id="clip-14"><path d="M 551.0 60.0 L 838.1 60.0 L 838.1 174.0 L 551.0 174.0 Z M 551.0 60.0 "></path></clipPath><g clip-path="url(#clip-14)"><text xml:space="preserve" font-family="DINCondensed-Bold" font-weight="bold" font-size="60.0" fill="#FEFFFE" transform="matrix(1.00, 0.00, -0.00, -1.00, 566.0, 116.0)">1</text><text xml:space="preserve" font-family="DINCondensed-Bold" font-weight="bold" font-size="60.0" fill="#FEFFFE" transform="matrix(1.00, 0.00, -0.00, -1.00, 588.3, 116.0)">0</text><text xml:space="preserve" font-family="DINCondensed-Bold" font-weight="bold" font-size="60.0" fill="#FEFFFE" transform="matrix(1.00, 0.00, -0.00, -1.00, 610.6, 116.0)">K</text><text xml:space="preserve" font-family="DINCondensed-Bold" font-weight="bold" font-size="60.0" fill="#FEFFFE" transform="matrix(1.00, 0.00, -0.00, -1.00, 636.2, 116.0)">+</text><text xml:space="preserve" font-family="DINCondensed-Bold" font-weight="bold" font-size="60.0" fill="#FEFFFE" transform="matrix(1.00, 0.00, -0.00, -1.00, 672.2, 116.0)"> </text><text xml:space="preserve" font-family="DINCondensed-Bold" font-weight="bold" font-size="60.0" fill="#FEFFFE" transform="matrix(1.00, 0.00, -0.00, -1.00, 683.4, 116.0)">E</text><text xml:space="preserve" font-family="DINCondensed-Bold" font-weight="bold" font-size="60.0" fill="#FEFFFE" transform="matrix(1.00, 0.00, -0.00, -1.00, 705.6, 116.0)">M</text><text xml:space="preserve" font-family="DINCondensed-Bold" font-weight="bold" font-size="60.0" fill="#FEFFFE" transform="matrix(1.00, 0.00, -0.00, -1.00, 738.9, 116.0)">A</text><text xml:space="preserve" font-family="DINCondensed-Bold" font-weight="bold" font-size="60.0" fill="#FEFFFE" transform="matrix(1.00, 0.00, -0.00, -1.00, 763.3, 116.0)">I</text><text xml:space="preserve" font-family="DINCondensed-Bold" font-weight="bold" font-size="60.0" fill="#FEFFFE" transform="matrix(1.00, 0.00, -0.00, -1.00, 775.6, 116.0)">L</text><text xml:space="preserve" font-family="DINCondensed-Bold" font-weight="bold" font-size="60.0" fill="#FEFFFE" transform="matrix(1.00, 0.00, -0.00, -1.00, 797.8, 116.0)">S</text></g></g></g></svg>