<?xml version="1.0" encoding="UTF-8" standalone="no"?><svg xmlns="http://www.w3.org/2000/svg" xmlns:xlink="http://www.w3.org/1999/xlink" clip-rule="evenodd" stroke-miterlimit="4.00" viewBox="0 0 1024 768"><desc>SVG generated by Keynote</desc><defs></defs><g transform="matrix(1.00, 0.00, -0.00, -1.00, 0.0, 768.0)"><path d="M 0.0 768.0 L 1024.0 768.0 L 1024.0 0.0 L 0.0 0.0 Z M 0.0 768.0 " fill="#212121"></path><path d="M 0.0 0.0 L 528.0 0.0 " fill="none" stroke="#A6AAA8" stroke-width="3.00" transform="matrix(1.00, 0.00, 0.00, -1.00, 464.0, 284.5)"></path><g><clipPath id="clip-86"><path d="M 0.0 768.0 L 432.0 768.0 L 432.0 0.0 L 0.0 0.0 Z M 0.0 768.0 "></path></clipPath><g clip-path="url(#clip-86)"><image xlink:href="../../11200A36-CCF9-422C-ADAA-FD472C4FEA2C/assets/1043BEB1E59BE5FF677AB17C8B8E0361.png" width="485.00" height="541.00" transform="matrix(1.77, 0.00, -0.00, -1.77, -82.0, 852.0)"></image></g></g><text xml:space="preserve" font-family="DINCondensed-Bold" font-weight="bold" font-size="170.0" fill="#34A4DA" transform="matrix(1.00, 0.00, -0.00, -1.00, 468.0, 137.0)">F</text><text xml:space="preserve" font-family="DINCondensed-Bold" font-weight="bold" font-size="170.0" fill="#34A4DA" transform="matrix(1.00, 0.00, -0.00, -1.00, 530.9, 137.0)">E</text><text xml:space="preserve" font-family="DINCondensed-Bold" font-weight="bold" font-size="170.0" fill="#34A4DA" transform="matrix(1.00, 0.00, -0.00, -1.00, 593.8, 137.0)">E</text><text xml:space="preserve" font-family="DINCondensed-Bold" font-weight="bold" font-size="170.0" fill="#34A4DA" transform="matrix(1.00, 0.00, -0.00, -1.00, 656.7, 137.0)">D</text><text xml:space="preserve" font-family="DINAlternate-Bold" font-weight="bold" font-size="54.0" fill="#A6AAA9" transform="matrix(1.00, 0.00, -0.00, -1.00, 468.0, 306.0)">A</text><text xml:space="preserve" font-family="DINAlternate-Bold" font-weight="bold" font-size="54.0" fill="#A6AAA9" transform="matrix(1.00, 0.00, -0.00, -1.00, 499.9, 306.0)">C</text><text xml:space="preserve" font-family="DINAlternate-Bold" font-weight="bold" font-size="54.0" fill="#A6AAA9" transform="matrix(1.00, 0.00, -0.00, -1.00, 530.0, 306.0)">T</text><text xml:space="preserve" font-family="DINAlternate-Bold" font-weight="bold" font-size="54.0" fill="#A6AAA9" transform="matrix(1.00, 0.00, -0.00, -1.00, 557.0, 306.0)">I</text><text xml:space="preserve" font-family="DINAlternate-Bold" font-weight="bold" font-size="54.0" fill="#A6AAA9" transform="matrix(1.00, 0.00, -0.00, -1.00, 570.9, 306.0)">V</text><text xml:space="preserve" font-family="DINAlternate-Bold" font-weight="bold" font-size="54.0" fill="#A6AAA9" transform="matrix(1.00, 0.00, -0.00, -1.00, 600.9, 306.0)">I</text><text xml:space="preserve" font-family="DINAlternate-Bold" font-weight="bold" font-size="54.0" fill="#A6AAA9" transform="matrix(1.00, 0.00, -0.00, -1.00, 614.9, 306.0)">T</text><text xml:space="preserve" font-family="DINAlternate-Bold" font-weight="bold" font-size="54.0" fill="#A6AAA9" transform="matrix(1.00, 0.00, -0.00, -1.00, 641.9, 306.0)">Y</text></g></svg>